<?xml version="1.0" encoding="UTF-8"?>
<svg width="20px" height="20px" viewBox="0 0 20 20" version="1.1" xmlns="http://www.w3.org/2000/svg" xmlns:xlink="http://www.w3.org/1999/xlink">
    <!-- Generator: Sketch 59.1 (86144) - https://sketch.com -->
    <title>Company Page - 4</title>
    <desc>Created with Sketch.</desc>
    <g id="Company-Page---4" stroke="none" stroke-width="1" fill="none" fill-rule="evenodd">
        <g id="icon/device/access_time_24px" fill="#5E6B92">
            <g id="clock" transform="translate(1.666667, 1.666667)">
                <path d="M8.33333333,-4.4408921e-16 C3.73096042,-4.4408921e-16 8.8817842e-16,3.73096042 8.8817842e-16,8.33333333 C8.8817842e-16,12.9357062 3.73096042,16.6666667 8.33333333,16.6666667 C12.9357062,16.6666667 16.6666667,12.9357062 16.6666667,8.33333333 C16.6666667,6.12319592 15.788693,4.00357998 14.2258898,2.44077682 C12.6630867,0.87797367 10.5434707,-4.4408921e-16 8.33333333,-4.4408921e-16 Z M8.33333333,15 C4.651435,15 1.66666667,12.0152317 1.66666667,8.33333333 C1.66666667,4.651435 4.651435,1.66666667 8.33333333,1.66666667 C12.0152317,1.66666667 15,4.651435 15,8.33333333 C15,10.1014433 14.2976211,11.797136 13.0473785,13.0473785 C11.797136,14.2976211 10.1014433,15 8.33333333,15 Z M10.9166667,8.85833333 L9.16666667,7.85 L9.16666667,4.16666667 C9.16666667,3.70642938 8.79357062,3.33333333 8.33333333,3.33333333 C7.87309604,3.33333333 7.5,3.70642938 7.5,4.16666667 L7.5,8.33333333 C7.5,8.33333333 7.5,8.4 7.5,8.43333333 C7.5049343,8.49075169 7.51900006,8.54701472 7.54166667,8.6 C7.55882827,8.64944213 7.58117498,8.69692889 7.60833333,8.74166667 C7.63113684,8.78903297 7.65908276,8.83374645 7.69166667,8.875 L7.825,8.98333333 L7.9,9.05833333 L10.0666667,10.3083333 C10.1936691,10.380317 10.337353,10.4176749 10.4833333,10.4166873 C10.8628274,10.4193199 11.1961843,10.1652327 11.2942122,9.79860843 C11.3922401,9.43198417 11.2301772,9.04543176 10.9,8.85833333 L10.9166667,8.85833333 Z" id="Shape"></path>
            </g>
        </g>
    </g>
</svg>