<svg width="23" height="21" viewBox="0 0 23 21" fill="none" xmlns="http://www.w3.org/2000/svg">
<path d="M17.957 5.72638C17.4121 5.18355 16.5305 5.18442 15.9866 5.72831C15.4427 6.27221 15.4418 7.15377 15.9847 7.69874L18.718 10.4321L15.9847 13.1654C15.6312 13.5175 15.4927 14.0316 15.6215 14.5136C15.7504 14.9956 16.1268 15.3721 16.6088 15.5009C17.0908 15.6297 17.6049 15.4912 17.957 15.1378L22.6627 10.4321L17.957 5.72638Z" fill="#927EE7"/>
<path d="M7.02863 5.72847C6.76713 5.46682 6.41237 5.31982 6.04245 5.31982C5.67253 5.31982 5.31778 5.46682 5.05628 5.72847L0.350586 10.4341L5.05628 15.1398C5.60124 15.6827 6.4828 15.6818 7.0267 15.1379C7.5706 14.594 7.57146 13.7124 7.02863 13.1675L4.2953 10.4341L7.02863 7.70082C7.29027 7.43932 7.43727 7.08456 7.43727 6.71464C7.43727 6.34472 7.29027 5.98997 7.02863 5.72847Z" fill="#927EE7"/>
<path d="M14.1151 0.899135C13.9111 0.843551 13.6934 0.871287 13.5098 0.976241C13.3263 1.08119 13.1919 1.25477 13.1364 1.45877L8.35433 18.9936C8.23884 19.4182 8.48911 19.8561 8.91355 19.972C8.98202 19.9908 9.05271 20.0002 9.1237 20C9.48306 19.9997 9.79781 19.7591 9.89229 19.4124L14.6743 1.87753C14.7898 1.45295 14.5395 1.01507 14.1151 0.899135Z" fill="#927EE7" stroke="#927EE7" stroke-width="0.935284"/>
</svg>
