<?xml version="1.0" encoding="UTF-8"?>
<svg width="20px" height="20px" viewBox="0 0 20 20" version="1.1" xmlns="http://www.w3.org/2000/svg" xmlns:xlink="http://www.w3.org/1999/xlink">
    <!-- Generator: Sketch 59.1 (86144) - https://sketch.com -->
    <title>Company Page - 3</title>
    <desc>Created with Sketch.</desc>
    <g id="Company-Page---3" stroke="none" stroke-width="1" fill="none" fill-rule="evenodd">
        <g id="icon/action/supervisor_account_24px" fill="#5E6B92">
            <g id="users-alt" transform="translate(0.833333, 2.500000)">
                <path d="M9.41666667,7.68333333 C10.3163743,6.90454286 10.8333463,5.77328647 10.8333333,4.58333333 C10.8333333,2.28214688 8.96785312,0.416666667 6.66666667,0.416666667 C4.36548021,0.416666667 2.5,2.28214688 2.5,4.58333333 C2.499987,5.77328647 3.016959,6.90454286 3.91666667,7.68333333 C1.53411747,8.76219829 0.00250508342,11.1345681 -8.8817842e-16,13.75 C-8.8817842e-16,14.2102373 0.373096042,14.5833333 0.833333333,14.5833333 C1.29357062,14.5833333 1.66666667,14.2102373 1.66666667,13.75 C1.66666667,10.9885763 3.90524292,8.75 6.66666667,8.75 C9.42809042,8.75 11.6666667,10.9885763 11.6666667,13.75 C11.6666667,14.2102373 12.0397627,14.5833333 12.5,14.5833333 C12.9602373,14.5833333 13.3333333,14.2102373 13.3333333,13.75 C13.3308282,11.1345681 11.7992159,8.76219829 9.41666667,7.68333333 L9.41666667,7.68333333 Z M6.66666667,7.08333333 C5.28595479,7.08333333 4.16666667,5.96404521 4.16666667,4.58333333 C4.16666667,3.20262146 5.28595479,2.08333333 6.66666667,2.08333333 C8.04737854,2.08333333 9.16666667,3.20262146 9.16666667,4.58333333 C9.16666667,5.24637456 8.90327457,5.88225934 8.43443362,6.35110029 C7.96559267,6.81994123 7.32970789,7.08333333 6.66666667,7.08333333 Z M14.7833333,7.35 C15.8727149,6.12324395 16.1407977,4.3713992 15.4681375,2.87499991 C14.7954772,1.37860062 13.3073014,0.416227864 11.6666667,0.416666517 C11.2064294,0.416666517 10.8333333,0.789762708 10.8333333,1.25 C10.8333333,1.71023729 11.2064294,2.08333333 11.6666667,2.08333333 C13.0473785,2.08333333 14.1666667,3.20262146 14.1666667,4.58333333 C14.1642668,5.47409192 13.6880909,6.29628899 12.9166667,6.74166667 C12.6654233,6.88658913 12.5076061,7.151722 12.5,7.44166667 C12.4929126,7.72927084 12.6346728,8.00019033 12.875,8.15833333 L13.2,8.375 L13.3083333,8.43333333 C15.3592293,9.40607181 16.6596121,11.4801823 16.6416667,13.75 C16.6416667,14.2102373 17.0147627,14.5833333 17.475,14.5833333 C17.9352373,14.5833333 18.3083333,14.2102373 18.3083333,13.75 C18.322184,11.1498578 16.9883021,8.72805804 14.7833333,7.35 L14.7833333,7.35 Z" id="Shape"></path>
            </g>
        </g>
    </g>
</svg>