<?xml version="1.0" encoding="UTF-8"?>
<svg width="32px" height="32px" viewBox="0 0 32 32" version="1.1" xmlns="http://www.w3.org/2000/svg" xmlns:xlink="http://www.w3.org/1999/xlink">
    <!-- Generator: Sketch 57.1 (83088) - https://sketch.com -->
    <title>Job Training</title>
    <desc>Created with Sketch.</desc>
    <defs>
        <rect id="path-1" x="0" y="0" width="32" height="32"></rect>
    </defs>
    <g id="Job-Training" stroke="none" stroke-width="1" fill="none" fill-rule="evenodd">
        <g id="Group-128">
            <mask id="mask-2" fill="white">
                <use xlink:href="#path-1"></use>
            </mask>
            <g id="Mask"></g>
            <g mask="url(#mask-2)">
                <g transform="translate(3.000000, 8.000000)">
                    <circle id="Oval" fill="#E5F1FF" fill-rule="evenodd" cx="13.5" cy="10.5" r="10.5"></circle>
                    <path d="M26,14 L26,15 L19.25,15 L19.25,16.125 L18.25,16.125 L18.25,15 L8,15 L8,16.125 L7,16.125 L7,15 L0,15 L0,14 L26,14 Z M21.75,0 C22.4403559,0 23,0.559644063 23,1.25 L23,10.75 C23,11.4403559 22.4403559,12 21.75,12 L4.25,12 C3.55964406,12 3,11.4403559 3,10.75 L3,1.25 C3,0.559644063 3.55964406,0 4.25,0 L21.75,0 Z M21.75,1 L4.25,1 C4.11192881,1 4,1.11192881 4,1.25 L4,10.75 C4,10.8880712 4.11192881,11 4.25,11 L21.75,11 C21.8880712,11 22,10.8880712 22,10.75 L22,1.25 C22,1.11192881 21.8880712,1 21.75,1 Z M15,8.05 L15,9.05 L5,9.05 L5,8.05 L15,8.05 Z M16.875,3 C17.9105339,3 18.75,3.83946609 18.75,4.875 C18.75,5.91053391 17.9105339,6.75 16.875,6.75 C15.8394661,6.75 15,5.91053391 15,4.875 C15,3.83946609 15.8394661,3 16.875,3 Z M11.25,5.55 L11.25,6.55 L5,6.55 L5,5.55 L11.25,5.55 Z M16.875,4 C16.3917508,4 16,4.39175084 16,4.875 C16,5.35824916 16.3917508,5.75 16.875,5.75 C17.3582492,5.75 17.75,5.35824916 17.75,4.875 C17.75,4.39175084 17.3582492,4 16.875,4 Z M11.25,3.05 L11.25,4.05 L5,4.05 L5,3.05 L11.25,3.05 Z" id="Combined-Shape" fill="#000000" fill-rule="nonzero"></path>
                </g>
            </g>
        </g>
    </g>
</svg>