<?xml version="1.0" encoding="UTF-8"?>
<svg width="20px" height="20px" viewBox="0 0 20 20" version="1.1" xmlns="http://www.w3.org/2000/svg" xmlns:xlink="http://www.w3.org/1999/xlink">
    <!-- Generator: Sketch 59.1 (86144) - https://sketch.com -->
    <title>Company Page - 1</title>
    <desc>Created with Sketch.</desc>
    <defs>
        <path d="M15,6.66666667 C15,3.90833333 12.7583333,1.66666667 10,1.66666667 C7.24166667,1.66666667 5,3.90833333 5,6.66666667 C5,10.4166667 10,15.8333333 10,15.8333333 C10,15.8333333 15,10.4166667 15,6.66666667 Z M8.33333333,6.66666667 C8.33333333,5.75 9.08333333,5 10,5 C10.9166667,5 11.6666667,5.75 11.6666667,6.66666667 C11.6666667,7.58333333 10.925,8.33333333 10,8.33333333 C9.08333333,8.33333333 8.33333333,7.58333333 8.33333333,6.66666667 Z M4.16666667,16.6666667 L4.16666667,18.3333333 L15.8333333,18.3333333 L15.8333333,16.6666667 L4.16666667,16.6666667 Z" id="path-1"></path>
    </defs>
    <g id="Company-Page---1" stroke="none" stroke-width="1" fill="none" fill-rule="evenodd">
        <g id="icon/maps/pin_drop_24px">
            <mask id="mask-2" fill="white">
                <use xlink:href="#path-1"></use>
            </mask>
            <use fill="#5E6B92" fill-rule="evenodd" xlink:href="#path-1"></use>
        </g>
    </g>
</svg>