<svg xmlns="http://www.w3.org/2000/svg" width="50" height="50" fill="none" viewBox="0 0 50 50">
    <circle cx="25" cy="25" r="25" fill="#E5F1FF" opacity=".6"/>
    <mask id="zluxdhvv4a" width="32" height="32" x="9" y="9" maskUnits="userSpaceOnUse">
        <path fill="#fff" d="M41 9H9v32h32V9z"/>
    </mask>
    <g mask="url(#zluxdhvv4a)">
        <path fill="#000" d="M37.886 16.2h-7.361v-.8c0-1.323-1.092-2.4-2.434-2.4h-6.49c-1.342 0-2.434 1.077-2.434 2.4v.8h-7.356c-.451 0-.811.365-.811.8v17.6c0 1.323 1.092 2.4 2.434 2.4h22.824c1.342 0 2.434-1.077 2.434-2.4V17.017v-.003c-.03-.526-.358-.81-.806-.814zm-17.096-.8c0-.441.364-.8.811-.8h6.49c.448 0 .812.359.812.8v.8H20.79v-.8zm15.965 2.4l-2.52 7.453c-.11.327-.419.547-.769.547h-4.563V25c0-.442-.363-.8-.812-.8h-6.49c-.448 0-.811.358-.811.8v.8h-4.564c-.35 0-.66-.22-.77-.547L12.937 17.8h23.818zm-9.475 8v1.6h-4.868v-1.6h4.868zm9.79 8.8c0 .441-.364.8-.812.8H13.434c-.447 0-.811-.359-.811-.8V21.93l1.294 3.829c.332.982 1.26 1.641 2.309 1.641h4.564v.8c0 .442.363.8.811.8h6.49c.448 0 .812-.358.812-.8v-.8h4.563c1.05 0 1.977-.66 2.31-1.641l1.294-3.83V34.6z"/>
    </g>
</svg>
